<svg width="28" height="48" viewBox="0 0 28 48" fill="none" xmlns="http://www.w3.org/2000/svg">
<path d="M14.81 21.0665C8.68103 19.4933 6.70997 17.8665 6.70997 15.3333C6.70997 12.4266 9.43709 10.4 14 10.4C17.3277 10.4 19.2056 11.4866 20.0999 13.2617C20.8145 14.6802 22.0044 15.9999 23.6005 15.9999C25.3007 15.9999 26.701 14.566 26.1759 12.9584C25.3127 10.3153 23.4304 8.02808 20.4913 6.67739C19.1136 6.04445 18.05 4.77758 18.05 3.26882C18.05 1.46355 16.5777 0 14.7617 0H13.1553C11.3851 0 9.94998 1.42643 9.94998 3.18615C9.94998 4.68765 8.87905 5.95039 7.46951 6.48978C3.44356 8.03022 0.5 11.084 0.5 15.3866C0.5 21.5465 5.65697 24.6132 13.19 26.4C19.9401 28 21.29 30.3466 21.29 32.8266C21.29 34.6667 19.967 37.5999 14 37.5999C10.0995 37.5999 7.85875 36.3934 6.76574 34.5873C5.96238 33.2599 4.76297 31.9999 3.20455 31.9999C1.47167 31.9999 0.0432101 33.4811 0.63677 35.0996C1.7809 38.2193 4.34668 40.3161 7.45125 41.4883C8.87125 42.0244 9.94998 43.2932 9.94998 44.8031C9.94998 46.5686 11.3899 48 13.1659 48H14.8968C16.6383 48 18.05 46.5965 18.05 44.8655C18.05 43.3582 19.1445 42.1003 20.5758 41.6033C24.5926 40.2084 27.5 37.3563 27.5 32.7999C27.5 25.2265 20.939 22.64 14.81 21.0665Z" fill="#1C344B"/>
</svg>
