<svg width="48" height="25" viewBox="0 0 48 25" fill="none" xmlns="http://www.w3.org/2000/svg">
<path d="M24 14C27.26 14 30.14 14.78 32.48 15.8C34.64 16.76 36 18.92 36 21.26V24.5H12V21.28C12 18.92 13.36 16.76 15.52 15.82C17.86 14.78 20.74 14 24 14ZM8 14.5C10.2 14.5 12 12.7 12 10.5C12 8.3 10.2 6.5 8 6.5C5.8 6.5 4 8.3 4 10.5C4 12.7 5.8 14.5 8 14.5ZM10.26 16.7C9.52 16.58 8.78 16.5 8 16.5C6.02 16.5 4.14 16.92 2.44 17.66C0.96 18.3 0 19.74 0 21.36V24.5H9V21.28C9 19.62 9.46 18.06 10.26 16.7ZM40 14.5C42.2 14.5 44 12.7 44 10.5C44 8.3 42.2 6.5 40 6.5C37.8 6.5 36 8.3 36 10.5C36 12.7 37.8 14.5 40 14.5ZM48 21.36C48 19.74 47.04 18.3 45.56 17.66C43.86 16.92 41.98 16.5 40 16.5C39.22 16.5 38.48 16.58 37.74 16.7C38.54 18.06 39 19.62 39 21.28V24.5H48V21.36ZM24 0.5C27.32 0.5 30 3.18 30 6.5C30 9.82 27.32 12.5 24 12.5C20.68 12.5 18 9.82 18 6.5C18 3.18 20.68 0.5 24 0.5Z" fill="currentColor"/>
</svg>
