<svg width="22" height="25" viewBox="0 0 22 25" fill="none" xmlns="http://www.w3.org/2000/svg">
<path d="M2.75 24.5C1.99375 24.5 1.34658 24.2317 0.8085 23.695C0.2695 23.1574 0 22.5114 0 21.7571V9.41429C0 8.98 0.0976247 8.56857 0.292875 8.18C0.487208 7.79143 0.75625 7.47143 1.1 7.22L9.35 1.04857C9.60208 0.865714 9.86563 0.728571 10.1406 0.637143C10.4156 0.545714 10.7021 0.5 11 0.5C11.2979 0.5 11.5844 0.545714 11.8594 0.637143C12.1344 0.728571 12.3979 0.865714 12.65 1.04857L20.9 7.22C21.2438 7.47143 21.5133 7.79143 21.7085 8.18C21.9028 8.56857 22 8.98 22 9.41429V21.7571C22 22.5114 21.731 23.1574 21.1929 23.695C20.6539 24.2317 20.0063 24.5 19.25 24.5H13.75V14.9H8.25V24.5H2.75Z" fill="currentColor"/>
</svg>
