<svg width="25" height="25" viewBox="0 0 25 25" fill="none" xmlns="http://www.w3.org/2000/svg">
<path d="M22.2875 7.44737L19.45 4.58C19.5375 4.04947 19.675 3.55684 19.85 3.12737C19.95 2.9 20 2.66 20 2.39474C20 1.34632 19.1625 0.5 18.125 0.5C16.075 0.5 14.2625 1.49789 13.125 3.02632H6.875C3.075 3.02632 0 6.13368 0 9.97368C0 13.8137 3.125 24.5 3.125 24.5H10V21.9737H12.5V24.5H19.375L21.475 17.4389L25 16.2516V7.44737H22.2875ZM13.75 9.3421H7.5V6.81579H13.75V9.3421ZM17.5 11.8684C16.8125 11.8684 16.25 11.3 16.25 10.6053C16.25 9.91053 16.8125 9.3421 17.5 9.3421C18.1875 9.3421 18.75 9.91053 18.75 10.6053C18.75 11.3 18.1875 11.8684 17.5 11.8684Z" fill="currentColor"/>
</svg>
