<svg width="30" height="25" viewBox="0 0 30 25" fill="none" xmlns="http://www.w3.org/2000/svg">
<path d="M27.285 0.5H3C1.35 0.5 0.015 1.85 0.015 3.5V9.5C1.665 9.5 3 10.85 3 12.5C3 14.15 1.665 15.5 0 15.5V21.5C0 23.15 1.35 24.5 3 24.5H27C28.65 24.5 30 23.15 30 21.5V3.5C30 1.85 28.785 0.5 27.285 0.5ZM23.595 14.45L10.305 17.99L7.815 13.67L9.21 13.295L11.1 14.78L14.685 13.82L11.085 7.58L13.185 7.01L19.2 12.62L22.86 11.645C23.625 11.435 24.42 11.9 24.63 12.665C24.825 13.43 24.375 14.225 23.595 14.45Z" fill="currentColor"/>
</svg>
