<svg width="18" height="25" viewBox="0 0 18 25" fill="none" xmlns="http://www.w3.org/2000/svg">
<path d="M9 9.26141C7.75714 9.26141 6.69643 8.83377 5.81786 7.97849C4.93929 7.12321 4.5 6.09061 4.5 4.8807C4.5 3.6708 4.93929 2.6382 5.81786 1.78292C6.69643 0.92764 7.75714 0.5 9 0.5C10.2429 0.5 11.3036 0.92764 12.1821 1.78292C13.0607 2.6382 13.5 3.6708 13.5 4.8807C13.5 6.09061 13.0607 7.12321 12.1821 7.97849C11.3036 8.83377 10.2429 9.26141 9 9.26141ZM7.16786 23.749L1.28571 18.0228C0.857143 17.6056 0.535714 17.1362 0.321429 16.6147C0.107143 16.0932 0 15.5196 0 14.8937C0 13.663 0.433929 12.6252 1.30179 11.7803C2.16964 10.9355 3.23571 10.513 4.5 10.513C5.12143 10.513 5.69464 10.6278 6.21964 10.8572C6.74464 11.0867 7.22143 11.41 7.65 11.8272L9 13.1415L10.35 11.8272C10.7786 11.41 11.2554 11.0867 11.7804 10.8572C12.3054 10.6278 12.8786 10.513 13.5 10.513C14.7643 10.513 15.8304 10.9355 16.6982 11.7803C17.5661 12.6252 18 13.663 18 14.8937C18 15.5196 17.8929 16.0932 17.6786 16.6147C17.4643 17.1362 17.1429 17.6056 16.7143 18.0228L10.8321 23.749C10.575 23.9993 10.2857 24.1871 9.96429 24.3123C9.64286 24.4374 9.32143 24.5 9 24.5C8.67857 24.5 8.35714 24.4374 8.03572 24.3123C7.71429 24.1871 7.425 23.9993 7.16786 23.749Z" fill="currentColor"/>
</svg>
