<svg width="71" height="70" viewBox="0 0 71 70" fill="none" xmlns="http://www.w3.org/2000/svg">
<path d="M35.0105 57.0432C47.3199 57.0432 57.2985 47.0645 57.2985 34.7552C57.2985 22.4459 47.3199 12.4672 35.0105 12.4672C22.7012 12.4672 12.7225 22.4459 12.7225 34.7552C12.7225 47.0645 22.7012 57.0432 35.0105 57.0432Z" fill="#FAD333" stroke="#1C344B" stroke-width="4"/>
<path d="M36.0469 54.6406C46.618 54.6406 55.1875 46.0711 55.1875 35.5C55.1875 24.9289 46.618 16.3594 36.0469 16.3594C25.4758 16.3594 16.9062 24.9289 16.9062 35.5C16.9062 46.0711 25.4758 54.6406 36.0469 54.6406Z" fill="#F29613"/>
<path d="M67.3872 33.9624C68.3842 34.2947 68.3842 35.7052 67.3872 36.0376L58.8146 38.8952C58.1064 39.1312 57.375 38.604 57.375 37.8575V32.1425C57.375 31.396 58.1064 30.8688 58.8146 31.1048L67.3872 33.9624Z" fill="#1C344B"/>
<path d="M3.32672 36.0279C2.36676 35.6788 2.36677 34.3212 3.32672 33.9721L11.0637 31.1586C11.777 30.8992 12.5312 31.4275 12.5312 32.1865V37.8135C12.5312 38.5725 11.777 39.1008 11.0637 38.8414L3.32672 36.0279Z" fill="#1C344B"/>
<path d="M34.4721 2.82672C34.8212 1.86676 36.1788 1.86677 36.5279 2.82672L39.3413 10.5637C39.6008 11.277 39.0725 12.0312 38.3134 12.0312H32.6865C31.9275 12.0312 31.3992 11.277 31.6586 10.5637L34.4721 2.82672Z" fill="#1C344B"/>
<path d="M36.5279 67.1733C36.1788 68.1332 34.8212 68.1332 34.4721 67.1733L31.6586 59.4362C31.3992 58.723 31.9275 57.9688 32.6865 57.9688H38.3134C39.0725 57.9688 39.6008 58.723 39.3413 59.4362L36.5279 67.1733Z" fill="#1C344B"/>
<path d="M33.5208 51.5C44.2789 51.5 52.4531 45.8678 52.4531 35.0938C52.4531 24.3197 47.1435 16.5 36.3854 16.5C25.6274 16.5 16.9062 25.2341 16.9062 36.0082C16.9062 46.7823 22.7628 51.5 33.5208 51.5Z" fill="#F5AF17"/>
<path d="M36.4998 32.8108C32.4611 31.7679 31.1623 30.6895 31.1623 29.0103C31.1623 27.0836 32.9593 25.7401 35.966 25.7401C38.1588 25.7401 39.3963 26.4604 39.9856 27.6371C40.4564 28.5774 41.2405 29.4522 42.2923 29.4522C43.4126 29.4522 44.3353 28.5017 43.9894 27.4361C43.4205 25.684 42.1802 24.1678 40.2435 23.2725C39.3357 22.8529 38.6348 22.0131 38.6348 21.013C38.6348 19.8163 37.6646 18.8462 36.468 18.8462H35.4094C34.243 18.8462 33.2973 19.7917 33.2973 20.9582C33.2973 21.9535 32.5916 22.7906 31.6628 23.1481C29.0099 24.1693 27.0703 26.1936 27.0703 29.0456C27.0703 33.1289 30.4684 35.1618 35.4323 36.3462C39.8803 37.4068 40.7698 38.9623 40.7698 40.6062C40.7698 41.826 39.898 43.7703 35.966 43.7703C33.3958 43.7703 31.9193 42.9706 31.199 41.7734C30.6697 40.8935 29.8793 40.0583 28.8524 40.0583C27.7105 40.0583 26.7693 41.0401 27.1604 42.113C27.9143 44.1809 29.605 45.5709 31.6508 46.3479C32.5865 46.7032 33.2973 47.5443 33.2973 48.5452C33.2973 49.7155 34.2461 50.6644 35.4164 50.6644H36.557C37.7046 50.6644 38.6348 49.734 38.6348 48.5866C38.6348 47.5874 39.356 46.7536 40.2992 46.4241C42.946 45.4995 44.8618 43.6089 44.8618 40.5885C44.8618 35.5683 40.5385 33.8538 36.4998 32.8108Z" fill="#1C344B"/>
</svg>
